<?xml version="1.0" encoding="utf-8" standalone="no"?>
<!DOCTYPE svg PUBLIC "-//W3C//DTD SVG 1.1//EN"
  "http://www.w3.org/Graphics/SVG/1.1/DTD/svg11.dtd">
<svg xmlns:xlink="http://www.w3.org/1999/xlink" width="720pt" height="432pt" viewBox="0 0 720 432" xmlns="http://www.w3.org/2000/svg" version="1.1">
 <metadata>
  <rdf:RDF xmlns:dc="http://purl.org/dc/elements/1.1/" xmlns:cc="http://creativecommons.org/ns#" xmlns:rdf="http://www.w3.org/1999/02/22-rdf-syntax-ns#">
   <cc:Work>
    <dc:type rdf:resource="http://purl.org/dc/dcmitype/StillImage"/>
    <dc:date>2024-08-15T17:12:57.864034</dc:date>
    <dc:format>image/svg+xml</dc:format>
    <dc:creator>
     <cc:Agent>
      <dc:title>Matplotlib v3.8.4, https://matplotlib.org/</dc:title>
     </cc:Agent>
    </dc:creator>
   </cc:Work>
  </rdf:RDF>
 </metadata>
 <defs>
  <style type="text/css">*{stroke-linejoin: round; stroke-linecap: butt}</style>
 </defs>
 <g id="figure_1">
  <g id="patch_1">
   <path d="M 0 432 
L 720 432 
L 720 0 
L 0 0 
z
" style="fill: #ffffff"/>
  </g>
  <g id="axes_1">
   <g id="patch_2">
    <path d="M 90 384.48 
L 648 384.48 
L 648 51.84 
L 90 51.84 
z
" style="fill: #ffffff"/>
   </g>
   <g id="matplotlib.axis_1">
    <g id="xtick_1">
     <g id="line2d_1">
      <path d="M 114.328386 384.48 
L 114.328386 51.84 
" clip-path="url(#p20f8d0bc64)" style="fill: none; stroke: #b0b0b0; stroke-width: 0.8; stroke-linecap: square"/>
     </g>
     <g id="line2d_2">
      <defs>
       <path id="m905e73566b" d="M 0 0 
L 0 3.5 
" style="stroke: #000000; stroke-width: 0.8"/>
      </defs>
      <g>
       <use xlink:href="#m905e73566b" x="114.328386" y="384.48" style="stroke: #000000; stroke-width: 0.8"/>
      </g>
     </g>
     <g id="text_1">
      <!-- 0 -->
      <g transform="translate(111.147136 399.078438) scale(0.1 -0.1)">
       <defs>
        <path id="DejaVuSans-30" d="M 2034 4250 
Q 1547 4250 1301 3770 
Q 1056 3291 1056 2328 
Q 1056 1369 1301 889 
Q 1547 409 2034 409 
Q 2525 409 2770 889 
Q 3016 1369 3016 2328 
Q 3016 3291 2770 3770 
Q 2525 4250 2034 4250 
z
M 2034 4750 
Q 2819 4750 3233 4129 
Q 3647 3509 3647 2328 
Q 3647 1150 3233 529 
Q 2819 -91 2034 -91 
Q 1250 -91 836 529 
Q 422 1150 422 2328 
Q 422 3509 836 4129 
Q 1250 4750 2034 4750 
z
" transform="scale(0.015625)"/>
       </defs>
       <use xlink:href="#DejaVuSans-30"/>
      </g>
     </g>
    </g>
    <g id="xtick_2">
     <g id="line2d_3">
      <path d="M 217.853432 384.48 
L 217.853432 51.84 
" clip-path="url(#p20f8d0bc64)" style="fill: none; stroke: #b0b0b0; stroke-width: 0.8; stroke-linecap: square"/>
     </g>
     <g id="line2d_4">
      <g>
       <use xlink:href="#m905e73566b" x="217.853432" y="384.48" style="stroke: #000000; stroke-width: 0.8"/>
      </g>
     </g>
     <g id="text_2">
      <!-- 100000 -->
      <g transform="translate(198.765932 399.078438) scale(0.1 -0.1)">
       <defs>
        <path id="DejaVuSans-31" d="M 794 531 
L 1825 531 
L 1825 4091 
L 703 3866 
L 703 4441 
L 1819 4666 
L 2450 4666 
L 2450 531 
L 3481 531 
L 3481 0 
L 794 0 
L 794 531 
z
" transform="scale(0.015625)"/>
       </defs>
       <use xlink:href="#DejaVuSans-31"/>
       <use xlink:href="#DejaVuSans-30" x="63.623047"/>
       <use xlink:href="#DejaVuSans-30" x="127.246094"/>
       <use xlink:href="#DejaVuSans-30" x="190.869141"/>
       <use xlink:href="#DejaVuSans-30" x="254.492188"/>
       <use xlink:href="#DejaVuSans-30" x="318.115234"/>
      </g>
     </g>
    </g>
    <g id="xtick_3">
     <g id="line2d_5">
      <path d="M 321.378479 384.48 
L 321.378479 51.84 
" clip-path="url(#p20f8d0bc64)" style="fill: none; stroke: #b0b0b0; stroke-width: 0.8; stroke-linecap: square"/>
     </g>
     <g id="line2d_6">
      <g>
       <use xlink:href="#m905e73566b" x="321.378479" y="384.48" style="stroke: #000000; stroke-width: 0.8"/>
      </g>
     </g>
     <g id="text_3">
      <!-- 200000 -->
      <g transform="translate(302.290979 399.078438) scale(0.1 -0.1)">
       <defs>
        <path id="DejaVuSans-32" d="M 1228 531 
L 3431 531 
L 3431 0 
L 469 0 
L 469 531 
Q 828 903 1448 1529 
Q 2069 2156 2228 2338 
Q 2531 2678 2651 2914 
Q 2772 3150 2772 3378 
Q 2772 3750 2511 3984 
Q 2250 4219 1831 4219 
Q 1534 4219 1204 4116 
Q 875 4013 500 3803 
L 500 4441 
Q 881 4594 1212 4672 
Q 1544 4750 1819 4750 
Q 2544 4750 2975 4387 
Q 3406 4025 3406 3419 
Q 3406 3131 3298 2873 
Q 3191 2616 2906 2266 
Q 2828 2175 2409 1742 
Q 1991 1309 1228 531 
z
" transform="scale(0.015625)"/>
       </defs>
       <use xlink:href="#DejaVuSans-32"/>
       <use xlink:href="#DejaVuSans-30" x="63.623047"/>
       <use xlink:href="#DejaVuSans-30" x="127.246094"/>
       <use xlink:href="#DejaVuSans-30" x="190.869141"/>
       <use xlink:href="#DejaVuSans-30" x="254.492188"/>
       <use xlink:href="#DejaVuSans-30" x="318.115234"/>
      </g>
     </g>
    </g>
    <g id="xtick_4">
     <g id="line2d_7">
      <path d="M 424.903525 384.48 
L 424.903525 51.84 
" clip-path="url(#p20f8d0bc64)" style="fill: none; stroke: #b0b0b0; stroke-width: 0.8; stroke-linecap: square"/>
     </g>
     <g id="line2d_8">
      <g>
       <use xlink:href="#m905e73566b" x="424.903525" y="384.48" style="stroke: #000000; stroke-width: 0.8"/>
      </g>
     </g>
     <g id="text_4">
      <!-- 300000 -->
      <g transform="translate(405.816025 399.078438) scale(0.1 -0.1)">
       <defs>
        <path id="DejaVuSans-33" d="M 2597 2516 
Q 3050 2419 3304 2112 
Q 3559 1806 3559 1356 
Q 3559 666 3084 287 
Q 2609 -91 1734 -91 
Q 1441 -91 1130 -33 
Q 819 25 488 141 
L 488 750 
Q 750 597 1062 519 
Q 1375 441 1716 441 
Q 2309 441 2620 675 
Q 2931 909 2931 1356 
Q 2931 1769 2642 2001 
Q 2353 2234 1838 2234 
L 1294 2234 
L 1294 2753 
L 1863 2753 
Q 2328 2753 2575 2939 
Q 2822 3125 2822 3475 
Q 2822 3834 2567 4026 
Q 2313 4219 1838 4219 
Q 1578 4219 1281 4162 
Q 984 4106 628 3988 
L 628 4550 
Q 988 4650 1302 4700 
Q 1616 4750 1894 4750 
Q 2613 4750 3031 4423 
Q 3450 4097 3450 3541 
Q 3450 3153 3228 2886 
Q 3006 2619 2597 2516 
z
" transform="scale(0.015625)"/>
       </defs>
       <use xlink:href="#DejaVuSans-33"/>
       <use xlink:href="#DejaVuSans-30" x="63.623047"/>
       <use xlink:href="#DejaVuSans-30" x="127.246094"/>
       <use xlink:href="#DejaVuSans-30" x="190.869141"/>
       <use xlink:href="#DejaVuSans-30" x="254.492188"/>
       <use xlink:href="#DejaVuSans-30" x="318.115234"/>
      </g>
     </g>
    </g>
    <g id="xtick_5">
     <g id="line2d_9">
      <path d="M 528.428571 384.48 
L 528.428571 51.84 
" clip-path="url(#p20f8d0bc64)" style="fill: none; stroke: #b0b0b0; stroke-width: 0.8; stroke-linecap: square"/>
     </g>
     <g id="line2d_10">
      <g>
       <use xlink:href="#m905e73566b" x="528.428571" y="384.48" style="stroke: #000000; stroke-width: 0.8"/>
      </g>
     </g>
     <g id="text_5">
      <!-- 400000 -->
      <g transform="translate(509.341071 399.078438) scale(0.1 -0.1)">
       <defs>
        <path id="DejaVuSans-34" d="M 2419 4116 
L 825 1625 
L 2419 1625 
L 2419 4116 
z
M 2253 4666 
L 3047 4666 
L 3047 1625 
L 3713 1625 
L 3713 1100 
L 3047 1100 
L 3047 0 
L 2419 0 
L 2419 1100 
L 313 1100 
L 313 1709 
L 2253 4666 
z
" transform="scale(0.015625)"/>
       </defs>
       <use xlink:href="#DejaVuSans-34"/>
       <use xlink:href="#DejaVuSans-30" x="63.623047"/>
       <use xlink:href="#DejaVuSans-30" x="127.246094"/>
       <use xlink:href="#DejaVuSans-30" x="190.869141"/>
       <use xlink:href="#DejaVuSans-30" x="254.492188"/>
       <use xlink:href="#DejaVuSans-30" x="318.115234"/>
      </g>
     </g>
    </g>
    <g id="xtick_6">
     <g id="line2d_11">
      <path d="M 631.953618 384.48 
L 631.953618 51.84 
" clip-path="url(#p20f8d0bc64)" style="fill: none; stroke: #b0b0b0; stroke-width: 0.8; stroke-linecap: square"/>
     </g>
     <g id="line2d_12">
      <g>
       <use xlink:href="#m905e73566b" x="631.953618" y="384.48" style="stroke: #000000; stroke-width: 0.8"/>
      </g>
     </g>
     <g id="text_6">
      <!-- 500000 -->
      <g transform="translate(612.866118 399.078438) scale(0.1 -0.1)">
       <defs>
        <path id="DejaVuSans-35" d="M 691 4666 
L 3169 4666 
L 3169 4134 
L 1269 4134 
L 1269 2991 
Q 1406 3038 1543 3061 
Q 1681 3084 1819 3084 
Q 2600 3084 3056 2656 
Q 3513 2228 3513 1497 
Q 3513 744 3044 326 
Q 2575 -91 1722 -91 
Q 1428 -91 1123 -41 
Q 819 9 494 109 
L 494 744 
Q 775 591 1075 516 
Q 1375 441 1709 441 
Q 2250 441 2565 725 
Q 2881 1009 2881 1497 
Q 2881 1984 2565 2268 
Q 2250 2553 1709 2553 
Q 1456 2553 1204 2497 
Q 953 2441 691 2322 
L 691 4666 
z
" transform="scale(0.015625)"/>
       </defs>
       <use xlink:href="#DejaVuSans-35"/>
       <use xlink:href="#DejaVuSans-30" x="63.623047"/>
       <use xlink:href="#DejaVuSans-30" x="127.246094"/>
       <use xlink:href="#DejaVuSans-30" x="190.869141"/>
       <use xlink:href="#DejaVuSans-30" x="254.492188"/>
       <use xlink:href="#DejaVuSans-30" x="318.115234"/>
      </g>
     </g>
    </g>
    <g id="text_7">
     <!-- Tamanho das Entradas (n) -->
     <g transform="translate(303.444531 412.756563) scale(0.1 -0.1)">
      <defs>
       <path id="DejaVuSans-54" d="M -19 4666 
L 3928 4666 
L 3928 4134 
L 2272 4134 
L 2272 0 
L 1638 0 
L 1638 4134 
L -19 4134 
L -19 4666 
z
" transform="scale(0.015625)"/>
       <path id="DejaVuSans-61" d="M 2194 1759 
Q 1497 1759 1228 1600 
Q 959 1441 959 1056 
Q 959 750 1161 570 
Q 1363 391 1709 391 
Q 2188 391 2477 730 
Q 2766 1069 2766 1631 
L 2766 1759 
L 2194 1759 
z
M 3341 1997 
L 3341 0 
L 2766 0 
L 2766 531 
Q 2569 213 2275 61 
Q 1981 -91 1556 -91 
Q 1019 -91 701 211 
Q 384 513 384 1019 
Q 384 1609 779 1909 
Q 1175 2209 1959 2209 
L 2766 2209 
L 2766 2266 
Q 2766 2663 2505 2880 
Q 2244 3097 1772 3097 
Q 1472 3097 1187 3025 
Q 903 2953 641 2809 
L 641 3341 
Q 956 3463 1253 3523 
Q 1550 3584 1831 3584 
Q 2591 3584 2966 3190 
Q 3341 2797 3341 1997 
z
" transform="scale(0.015625)"/>
       <path id="DejaVuSans-6d" d="M 3328 2828 
Q 3544 3216 3844 3400 
Q 4144 3584 4550 3584 
Q 5097 3584 5394 3201 
Q 5691 2819 5691 2113 
L 5691 0 
L 5113 0 
L 5113 2094 
Q 5113 2597 4934 2840 
Q 4756 3084 4391 3084 
Q 3944 3084 3684 2787 
Q 3425 2491 3425 1978 
L 3425 0 
L 2847 0 
L 2847 2094 
Q 2847 2600 2669 2842 
Q 2491 3084 2119 3084 
Q 1678 3084 1418 2786 
Q 1159 2488 1159 1978 
L 1159 0 
L 581 0 
L 581 3500 
L 1159 3500 
L 1159 2956 
Q 1356 3278 1631 3431 
Q 1906 3584 2284 3584 
Q 2666 3584 2933 3390 
Q 3200 3197 3328 2828 
z
" transform="scale(0.015625)"/>
       <path id="DejaVuSans-6e" d="M 3513 2113 
L 3513 0 
L 2938 0 
L 2938 2094 
Q 2938 2591 2744 2837 
Q 2550 3084 2163 3084 
Q 1697 3084 1428 2787 
Q 1159 2491 1159 1978 
L 1159 0 
L 581 0 
L 581 3500 
L 1159 3500 
L 1159 2956 
Q 1366 3272 1645 3428 
Q 1925 3584 2291 3584 
Q 2894 3584 3203 3211 
Q 3513 2838 3513 2113 
z
" transform="scale(0.015625)"/>
       <path id="DejaVuSans-68" d="M 3513 2113 
L 3513 0 
L 2938 0 
L 2938 2094 
Q 2938 2591 2744 2837 
Q 2550 3084 2163 3084 
Q 1697 3084 1428 2787 
Q 1159 2491 1159 1978 
L 1159 0 
L 581 0 
L 581 4863 
L 1159 4863 
L 1159 2956 
Q 1366 3272 1645 3428 
Q 1925 3584 2291 3584 
Q 2894 3584 3203 3211 
Q 3513 2838 3513 2113 
z
" transform="scale(0.015625)"/>
       <path id="DejaVuSans-6f" d="M 1959 3097 
Q 1497 3097 1228 2736 
Q 959 2375 959 1747 
Q 959 1119 1226 758 
Q 1494 397 1959 397 
Q 2419 397 2687 759 
Q 2956 1122 2956 1747 
Q 2956 2369 2687 2733 
Q 2419 3097 1959 3097 
z
M 1959 3584 
Q 2709 3584 3137 3096 
Q 3566 2609 3566 1747 
Q 3566 888 3137 398 
Q 2709 -91 1959 -91 
Q 1206 -91 779 398 
Q 353 888 353 1747 
Q 353 2609 779 3096 
Q 1206 3584 1959 3584 
z
" transform="scale(0.015625)"/>
       <path id="DejaVuSans-20" transform="scale(0.015625)"/>
       <path id="DejaVuSans-64" d="M 2906 2969 
L 2906 4863 
L 3481 4863 
L 3481 0 
L 2906 0 
L 2906 525 
Q 2725 213 2448 61 
Q 2172 -91 1784 -91 
Q 1150 -91 751 415 
Q 353 922 353 1747 
Q 353 2572 751 3078 
Q 1150 3584 1784 3584 
Q 2172 3584 2448 3432 
Q 2725 3281 2906 2969 
z
M 947 1747 
Q 947 1113 1208 752 
Q 1469 391 1925 391 
Q 2381 391 2643 752 
Q 2906 1113 2906 1747 
Q 2906 2381 2643 2742 
Q 2381 3103 1925 3103 
Q 1469 3103 1208 2742 
Q 947 2381 947 1747 
z
" transform="scale(0.015625)"/>
       <path id="DejaVuSans-73" d="M 2834 3397 
L 2834 2853 
Q 2591 2978 2328 3040 
Q 2066 3103 1784 3103 
Q 1356 3103 1142 2972 
Q 928 2841 928 2578 
Q 928 2378 1081 2264 
Q 1234 2150 1697 2047 
L 1894 2003 
Q 2506 1872 2764 1633 
Q 3022 1394 3022 966 
Q 3022 478 2636 193 
Q 2250 -91 1575 -91 
Q 1294 -91 989 -36 
Q 684 19 347 128 
L 347 722 
Q 666 556 975 473 
Q 1284 391 1588 391 
Q 1994 391 2212 530 
Q 2431 669 2431 922 
Q 2431 1156 2273 1281 
Q 2116 1406 1581 1522 
L 1381 1569 
Q 847 1681 609 1914 
Q 372 2147 372 2553 
Q 372 3047 722 3315 
Q 1072 3584 1716 3584 
Q 2034 3584 2315 3537 
Q 2597 3491 2834 3397 
z
" transform="scale(0.015625)"/>
       <path id="DejaVuSans-45" d="M 628 4666 
L 3578 4666 
L 3578 4134 
L 1259 4134 
L 1259 2753 
L 3481 2753 
L 3481 2222 
L 1259 2222 
L 1259 531 
L 3634 531 
L 3634 0 
L 628 0 
L 628 4666 
z
" transform="scale(0.015625)"/>
       <path id="DejaVuSans-74" d="M 1172 4494 
L 1172 3500 
L 2356 3500 
L 2356 3053 
L 1172 3053 
L 1172 1153 
Q 1172 725 1289 603 
Q 1406 481 1766 481 
L 2356 481 
L 2356 0 
L 1766 0 
Q 1100 0 847 248 
Q 594 497 594 1153 
L 594 3053 
L 172 3053 
L 172 3500 
L 594 3500 
L 594 4494 
L 1172 4494 
z
" transform="scale(0.015625)"/>
       <path id="DejaVuSans-72" d="M 2631 2963 
Q 2534 3019 2420 3045 
Q 2306 3072 2169 3072 
Q 1681 3072 1420 2755 
Q 1159 2438 1159 1844 
L 1159 0 
L 581 0 
L 581 3500 
L 1159 3500 
L 1159 2956 
Q 1341 3275 1631 3429 
Q 1922 3584 2338 3584 
Q 2397 3584 2469 3576 
Q 2541 3569 2628 3553 
L 2631 2963 
z
" transform="scale(0.015625)"/>
       <path id="DejaVuSans-28" d="M 1984 4856 
Q 1566 4138 1362 3434 
Q 1159 2731 1159 2009 
Q 1159 1288 1364 580 
Q 1569 -128 1984 -844 
L 1484 -844 
Q 1016 -109 783 600 
Q 550 1309 550 2009 
Q 550 2706 781 3412 
Q 1013 4119 1484 4856 
L 1984 4856 
z
" transform="scale(0.015625)"/>
       <path id="DejaVuSans-29" d="M 513 4856 
L 1013 4856 
Q 1481 4119 1714 3412 
Q 1947 2706 1947 2009 
Q 1947 1309 1714 600 
Q 1481 -109 1013 -844 
L 513 -844 
Q 928 -128 1133 580 
Q 1338 1288 1338 2009 
Q 1338 2731 1133 3434 
Q 928 4138 513 4856 
z
" transform="scale(0.015625)"/>
      </defs>
      <use xlink:href="#DejaVuSans-54"/>
      <use xlink:href="#DejaVuSans-61" x="44.583984"/>
      <use xlink:href="#DejaVuSans-6d" x="105.863281"/>
      <use xlink:href="#DejaVuSans-61" x="203.275391"/>
      <use xlink:href="#DejaVuSans-6e" x="264.554688"/>
      <use xlink:href="#DejaVuSans-68" x="327.933594"/>
      <use xlink:href="#DejaVuSans-6f" x="391.3125"/>
      <use xlink:href="#DejaVuSans-20" x="452.494141"/>
      <use xlink:href="#DejaVuSans-64" x="484.28125"/>
      <use xlink:href="#DejaVuSans-61" x="547.757812"/>
      <use xlink:href="#DejaVuSans-73" x="609.037109"/>
      <use xlink:href="#DejaVuSans-20" x="661.136719"/>
      <use xlink:href="#DejaVuSans-45" x="692.923828"/>
      <use xlink:href="#DejaVuSans-6e" x="756.107422"/>
      <use xlink:href="#DejaVuSans-74" x="819.486328"/>
      <use xlink:href="#DejaVuSans-72" x="858.695312"/>
      <use xlink:href="#DejaVuSans-61" x="899.808594"/>
      <use xlink:href="#DejaVuSans-64" x="961.087891"/>
      <use xlink:href="#DejaVuSans-61" x="1024.564453"/>
      <use xlink:href="#DejaVuSans-73" x="1085.84375"/>
      <use xlink:href="#DejaVuSans-20" x="1137.943359"/>
      <use xlink:href="#DejaVuSans-28" x="1169.730469"/>
      <use xlink:href="#DejaVuSans-6e" x="1208.744141"/>
      <use xlink:href="#DejaVuSans-29" x="1272.123047"/>
     </g>
    </g>
   </g>
   <g id="matplotlib.axis_2">
    <g id="ytick_1">
     <g id="line2d_13">
      <path d="M 90 370.351951 
L 648 370.351951 
" clip-path="url(#p20f8d0bc64)" style="fill: none; stroke: #b0b0b0; stroke-width: 0.8; stroke-linecap: square"/>
     </g>
     <g id="line2d_14">
      <defs>
       <path id="m43c44eda9f" d="M 0 0 
L -3.5 0 
" style="stroke: #000000; stroke-width: 0.8"/>
      </defs>
      <g>
       <use xlink:href="#m43c44eda9f" x="90" y="370.351951" style="stroke: #000000; stroke-width: 0.8"/>
      </g>
     </g>
     <g id="text_8">
      <!-- 0.000 -->
      <g transform="translate(54.371875 374.15117) scale(0.1 -0.1)">
       <defs>
        <path id="DejaVuSans-2e" d="M 684 794 
L 1344 794 
L 1344 0 
L 684 0 
L 684 794 
z
" transform="scale(0.015625)"/>
       </defs>
       <use xlink:href="#DejaVuSans-30"/>
       <use xlink:href="#DejaVuSans-2e" x="63.623047"/>
       <use xlink:href="#DejaVuSans-30" x="95.410156"/>
       <use xlink:href="#DejaVuSans-30" x="159.033203"/>
       <use xlink:href="#DejaVuSans-30" x="222.65625"/>
      </g>
     </g>
    </g>
    <g id="ytick_2">
     <g id="line2d_15">
      <path d="M 90 317.623668 
L 648 317.623668 
" clip-path="url(#p20f8d0bc64)" style="fill: none; stroke: #b0b0b0; stroke-width: 0.8; stroke-linecap: square"/>
     </g>
     <g id="line2d_16">
      <g>
       <use xlink:href="#m43c44eda9f" x="90" y="317.623668" style="stroke: #000000; stroke-width: 0.8"/>
      </g>
     </g>
     <g id="text_9">
      <!-- 0.002 -->
      <g transform="translate(54.371875 321.422886) scale(0.1 -0.1)">
       <use xlink:href="#DejaVuSans-30"/>
       <use xlink:href="#DejaVuSans-2e" x="63.623047"/>
       <use xlink:href="#DejaVuSans-30" x="95.410156"/>
       <use xlink:href="#DejaVuSans-30" x="159.033203"/>
       <use xlink:href="#DejaVuSans-32" x="222.65625"/>
      </g>
     </g>
    </g>
    <g id="ytick_3">
     <g id="line2d_17">
      <path d="M 90 264.895384 
L 648 264.895384 
" clip-path="url(#p20f8d0bc64)" style="fill: none; stroke: #b0b0b0; stroke-width: 0.8; stroke-linecap: square"/>
     </g>
     <g id="line2d_18">
      <g>
       <use xlink:href="#m43c44eda9f" x="90" y="264.895384" style="stroke: #000000; stroke-width: 0.8"/>
      </g>
     </g>
     <g id="text_10">
      <!-- 0.004 -->
      <g transform="translate(54.371875 268.694603) scale(0.1 -0.1)">
       <use xlink:href="#DejaVuSans-30"/>
       <use xlink:href="#DejaVuSans-2e" x="63.623047"/>
       <use xlink:href="#DejaVuSans-30" x="95.410156"/>
       <use xlink:href="#DejaVuSans-30" x="159.033203"/>
       <use xlink:href="#DejaVuSans-34" x="222.65625"/>
      </g>
     </g>
    </g>
    <g id="ytick_4">
     <g id="line2d_19">
      <path d="M 90 212.167101 
L 648 212.167101 
" clip-path="url(#p20f8d0bc64)" style="fill: none; stroke: #b0b0b0; stroke-width: 0.8; stroke-linecap: square"/>
     </g>
     <g id="line2d_20">
      <g>
       <use xlink:href="#m43c44eda9f" x="90" y="212.167101" style="stroke: #000000; stroke-width: 0.8"/>
      </g>
     </g>
     <g id="text_11">
      <!-- 0.006 -->
      <g transform="translate(54.371875 215.96632) scale(0.1 -0.1)">
       <defs>
        <path id="DejaVuSans-36" d="M 2113 2584 
Q 1688 2584 1439 2293 
Q 1191 2003 1191 1497 
Q 1191 994 1439 701 
Q 1688 409 2113 409 
Q 2538 409 2786 701 
Q 3034 994 3034 1497 
Q 3034 2003 2786 2293 
Q 2538 2584 2113 2584 
z
M 3366 4563 
L 3366 3988 
Q 3128 4100 2886 4159 
Q 2644 4219 2406 4219 
Q 1781 4219 1451 3797 
Q 1122 3375 1075 2522 
Q 1259 2794 1537 2939 
Q 1816 3084 2150 3084 
Q 2853 3084 3261 2657 
Q 3669 2231 3669 1497 
Q 3669 778 3244 343 
Q 2819 -91 2113 -91 
Q 1303 -91 875 529 
Q 447 1150 447 2328 
Q 447 3434 972 4092 
Q 1497 4750 2381 4750 
Q 2619 4750 2861 4703 
Q 3103 4656 3366 4563 
z
" transform="scale(0.015625)"/>
       </defs>
       <use xlink:href="#DejaVuSans-30"/>
       <use xlink:href="#DejaVuSans-2e" x="63.623047"/>
       <use xlink:href="#DejaVuSans-30" x="95.410156"/>
       <use xlink:href="#DejaVuSans-30" x="159.033203"/>
       <use xlink:href="#DejaVuSans-36" x="222.65625"/>
      </g>
     </g>
    </g>
    <g id="ytick_5">
     <g id="line2d_21">
      <path d="M 90 159.438818 
L 648 159.438818 
" clip-path="url(#p20f8d0bc64)" style="fill: none; stroke: #b0b0b0; stroke-width: 0.8; stroke-linecap: square"/>
     </g>
     <g id="line2d_22">
      <g>
       <use xlink:href="#m43c44eda9f" x="90" y="159.438818" style="stroke: #000000; stroke-width: 0.8"/>
      </g>
     </g>
     <g id="text_12">
      <!-- 0.008 -->
      <g transform="translate(54.371875 163.238037) scale(0.1 -0.1)">
       <defs>
        <path id="DejaVuSans-38" d="M 2034 2216 
Q 1584 2216 1326 1975 
Q 1069 1734 1069 1313 
Q 1069 891 1326 650 
Q 1584 409 2034 409 
Q 2484 409 2743 651 
Q 3003 894 3003 1313 
Q 3003 1734 2745 1975 
Q 2488 2216 2034 2216 
z
M 1403 2484 
Q 997 2584 770 2862 
Q 544 3141 544 3541 
Q 544 4100 942 4425 
Q 1341 4750 2034 4750 
Q 2731 4750 3128 4425 
Q 3525 4100 3525 3541 
Q 3525 3141 3298 2862 
Q 3072 2584 2669 2484 
Q 3125 2378 3379 2068 
Q 3634 1759 3634 1313 
Q 3634 634 3220 271 
Q 2806 -91 2034 -91 
Q 1263 -91 848 271 
Q 434 634 434 1313 
Q 434 1759 690 2068 
Q 947 2378 1403 2484 
z
M 1172 3481 
Q 1172 3119 1398 2916 
Q 1625 2713 2034 2713 
Q 2441 2713 2670 2916 
Q 2900 3119 2900 3481 
Q 2900 3844 2670 4047 
Q 2441 4250 2034 4250 
Q 1625 4250 1398 4047 
Q 1172 3844 1172 3481 
z
" transform="scale(0.015625)"/>
       </defs>
       <use xlink:href="#DejaVuSans-30"/>
       <use xlink:href="#DejaVuSans-2e" x="63.623047"/>
       <use xlink:href="#DejaVuSans-30" x="95.410156"/>
       <use xlink:href="#DejaVuSans-30" x="159.033203"/>
       <use xlink:href="#DejaVuSans-38" x="222.65625"/>
      </g>
     </g>
    </g>
    <g id="ytick_6">
     <g id="line2d_23">
      <path d="M 90 106.710535 
L 648 106.710535 
" clip-path="url(#p20f8d0bc64)" style="fill: none; stroke: #b0b0b0; stroke-width: 0.8; stroke-linecap: square"/>
     </g>
     <g id="line2d_24">
      <g>
       <use xlink:href="#m43c44eda9f" x="90" y="106.710535" style="stroke: #000000; stroke-width: 0.8"/>
      </g>
     </g>
     <g id="text_13">
      <!-- 0.010 -->
      <g transform="translate(54.371875 110.509753) scale(0.1 -0.1)">
       <use xlink:href="#DejaVuSans-30"/>
       <use xlink:href="#DejaVuSans-2e" x="63.623047"/>
       <use xlink:href="#DejaVuSans-30" x="95.410156"/>
       <use xlink:href="#DejaVuSans-31" x="159.033203"/>
       <use xlink:href="#DejaVuSans-30" x="222.65625"/>
      </g>
     </g>
    </g>
    <g id="ytick_7">
     <g id="line2d_25">
      <path d="M 90 53.982251 
L 648 53.982251 
" clip-path="url(#p20f8d0bc64)" style="fill: none; stroke: #b0b0b0; stroke-width: 0.8; stroke-linecap: square"/>
     </g>
     <g id="line2d_26">
      <g>
       <use xlink:href="#m43c44eda9f" x="90" y="53.982251" style="stroke: #000000; stroke-width: 0.8"/>
      </g>
     </g>
     <g id="text_14">
      <!-- 0.012 -->
      <g transform="translate(54.371875 57.78147) scale(0.1 -0.1)">
       <use xlink:href="#DejaVuSans-30"/>
       <use xlink:href="#DejaVuSans-2e" x="63.623047"/>
       <use xlink:href="#DejaVuSans-30" x="95.410156"/>
       <use xlink:href="#DejaVuSans-31" x="159.033203"/>
       <use xlink:href="#DejaVuSans-32" x="222.65625"/>
      </g>
     </g>
    </g>
    <g id="text_15">
     <!-- Tempo médio (segundos) -->
     <g transform="translate(48.292187 281.224844) rotate(-90) scale(0.1 -0.1)">
      <defs>
       <path id="DejaVuSans-65" d="M 3597 1894 
L 3597 1613 
L 953 1613 
Q 991 1019 1311 708 
Q 1631 397 2203 397 
Q 2534 397 2845 478 
Q 3156 559 3463 722 
L 3463 178 
Q 3153 47 2828 -22 
Q 2503 -91 2169 -91 
Q 1331 -91 842 396 
Q 353 884 353 1716 
Q 353 2575 817 3079 
Q 1281 3584 2069 3584 
Q 2775 3584 3186 3129 
Q 3597 2675 3597 1894 
z
M 3022 2063 
Q 3016 2534 2758 2815 
Q 2500 3097 2075 3097 
Q 1594 3097 1305 2825 
Q 1016 2553 972 2059 
L 3022 2063 
z
" transform="scale(0.015625)"/>
       <path id="DejaVuSans-70" d="M 1159 525 
L 1159 -1331 
L 581 -1331 
L 581 3500 
L 1159 3500 
L 1159 2969 
Q 1341 3281 1617 3432 
Q 1894 3584 2278 3584 
Q 2916 3584 3314 3078 
Q 3713 2572 3713 1747 
Q 3713 922 3314 415 
Q 2916 -91 2278 -91 
Q 1894 -91 1617 61 
Q 1341 213 1159 525 
z
M 3116 1747 
Q 3116 2381 2855 2742 
Q 2594 3103 2138 3103 
Q 1681 3103 1420 2742 
Q 1159 2381 1159 1747 
Q 1159 1113 1420 752 
Q 1681 391 2138 391 
Q 2594 391 2855 752 
Q 3116 1113 3116 1747 
z
" transform="scale(0.015625)"/>
       <path id="DejaVuSans-e9" d="M 3597 1894 
L 3597 1613 
L 953 1613 
Q 991 1019 1311 708 
Q 1631 397 2203 397 
Q 2534 397 2845 478 
Q 3156 559 3463 722 
L 3463 178 
Q 3153 47 2828 -22 
Q 2503 -91 2169 -91 
Q 1331 -91 842 396 
Q 353 884 353 1716 
Q 353 2575 817 3079 
Q 1281 3584 2069 3584 
Q 2775 3584 3186 3129 
Q 3597 2675 3597 1894 
z
M 3022 2063 
Q 3016 2534 2758 2815 
Q 2500 3097 2075 3097 
Q 1594 3097 1305 2825 
Q 1016 2553 972 2059 
L 3022 2063 
z
M 2469 5119 
L 3091 5119 
L 2072 3944 
L 1594 3944 
L 2469 5119 
z
" transform="scale(0.015625)"/>
       <path id="DejaVuSans-69" d="M 603 3500 
L 1178 3500 
L 1178 0 
L 603 0 
L 603 3500 
z
M 603 4863 
L 1178 4863 
L 1178 4134 
L 603 4134 
L 603 4863 
z
" transform="scale(0.015625)"/>
       <path id="DejaVuSans-67" d="M 2906 1791 
Q 2906 2416 2648 2759 
Q 2391 3103 1925 3103 
Q 1463 3103 1205 2759 
Q 947 2416 947 1791 
Q 947 1169 1205 825 
Q 1463 481 1925 481 
Q 2391 481 2648 825 
Q 2906 1169 2906 1791 
z
M 3481 434 
Q 3481 -459 3084 -895 
Q 2688 -1331 1869 -1331 
Q 1566 -1331 1297 -1286 
Q 1028 -1241 775 -1147 
L 775 -588 
Q 1028 -725 1275 -790 
Q 1522 -856 1778 -856 
Q 2344 -856 2625 -561 
Q 2906 -266 2906 331 
L 2906 616 
Q 2728 306 2450 153 
Q 2172 0 1784 0 
Q 1141 0 747 490 
Q 353 981 353 1791 
Q 353 2603 747 3093 
Q 1141 3584 1784 3584 
Q 2172 3584 2450 3431 
Q 2728 3278 2906 2969 
L 2906 3500 
L 3481 3500 
L 3481 434 
z
" transform="scale(0.015625)"/>
       <path id="DejaVuSans-75" d="M 544 1381 
L 544 3500 
L 1119 3500 
L 1119 1403 
Q 1119 906 1312 657 
Q 1506 409 1894 409 
Q 2359 409 2629 706 
Q 2900 1003 2900 1516 
L 2900 3500 
L 3475 3500 
L 3475 0 
L 2900 0 
L 2900 538 
Q 2691 219 2414 64 
Q 2138 -91 1772 -91 
Q 1169 -91 856 284 
Q 544 659 544 1381 
z
M 1991 3584 
L 1991 3584 
z
" transform="scale(0.015625)"/>
      </defs>
      <use xlink:href="#DejaVuSans-54"/>
      <use xlink:href="#DejaVuSans-65" x="44.083984"/>
      <use xlink:href="#DejaVuSans-6d" x="105.607422"/>
      <use xlink:href="#DejaVuSans-70" x="203.019531"/>
      <use xlink:href="#DejaVuSans-6f" x="266.496094"/>
      <use xlink:href="#DejaVuSans-20" x="327.677734"/>
      <use xlink:href="#DejaVuSans-6d" x="359.464844"/>
      <use xlink:href="#DejaVuSans-e9" x="456.876953"/>
      <use xlink:href="#DejaVuSans-64" x="518.400391"/>
      <use xlink:href="#DejaVuSans-69" x="581.876953"/>
      <use xlink:href="#DejaVuSans-6f" x="609.660156"/>
      <use xlink:href="#DejaVuSans-20" x="670.841797"/>
      <use xlink:href="#DejaVuSans-28" x="702.628906"/>
      <use xlink:href="#DejaVuSans-73" x="741.642578"/>
      <use xlink:href="#DejaVuSans-65" x="793.742188"/>
      <use xlink:href="#DejaVuSans-67" x="855.265625"/>
      <use xlink:href="#DejaVuSans-75" x="918.742188"/>
      <use xlink:href="#DejaVuSans-6e" x="982.121094"/>
      <use xlink:href="#DejaVuSans-64" x="1045.5"/>
      <use xlink:href="#DejaVuSans-6f" x="1108.976562"/>
      <use xlink:href="#DejaVuSans-73" x="1170.158203"/>
      <use xlink:href="#DejaVuSans-29" x="1222.257812"/>
     </g>
    </g>
   </g>
   <g id="line2d_27">
    <path d="M 115.363636 369.257839 
L 125.716141 362.973287 
L 136.068646 356.322932 
L 146.42115 351.010557 
L 156.773655 346.551722 
L 167.12616 341.806176 
L 177.478664 338.658957 
L 187.831169 331.810871 
L 198.183673 329.89288 
L 208.536178 323.183206 
L 218.888683 319.953599 
L 229.241187 315.399193 
L 239.593692 310.564669 
L 249.946197 305.143542 
L 260.298701 300.332086 
L 270.651206 294.241969 
L 281.003711 290.366441 
L 291.356215 283.897339 
L 301.70872 279.649417 
L 312.061224 275.55968 
L 322.413729 270.599925 
L 332.766234 264.928339 
L 343.118738 260.482686 
L 353.471243 255.822824 
L 363.823748 250.935571 
L 374.176252 242.485864 
L 384.528757 240.818332 
L 394.881262 236.366088 
L 405.233766 230.961439 
L 415.586271 226.720107 
L 425.938776 221.51978 
L 436.29128 216.467752 
L 446.643785 211.956188 
L 456.996289 206.963479 
L 467.348794 201.492919 
L 477.701299 196.862717 
L 488.053803 192.42695 
L 498.406308 187.411172 
L 508.758813 180.737749 
L 519.111317 176.852333 
L 529.463822 171.843146 
L 539.816327 167.766591 
L 550.168831 162.121369 
L 560.521336 157.454916 
L 570.87384 152.966421 
L 581.226345 147.594727 
L 591.57885 140.980623 
L 601.931354 137.602717 
L 612.283859 132.886832 
L 622.636364 128.108331 
" clip-path="url(#p20f8d0bc64)" style="fill: none; stroke: #1f77b4; stroke-width: 1.5; stroke-linecap: square"/>
    <defs>
     <path id="m8919e27e1f" d="M 0 3 
C 0.795609 3 1.55874 2.683901 2.12132 2.12132 
C 2.683901 1.55874 3 0.795609 3 0 
C 3 -0.795609 2.683901 -1.55874 2.12132 -2.12132 
C 1.55874 -2.683901 0.795609 -3 0 -3 
C -0.795609 -3 -1.55874 -2.683901 -2.12132 -2.12132 
C -2.683901 -1.55874 -3 -0.795609 -3 0 
C -3 0.795609 -2.683901 1.55874 -2.12132 2.12132 
C -1.55874 2.683901 -0.795609 3 0 3 
z
" style="stroke: #1f77b4"/>
    </defs>
    <g clip-path="url(#p20f8d0bc64)">
     <use xlink:href="#m8919e27e1f" x="115.363636" y="369.257839" style="fill: #1f77b4; stroke: #1f77b4"/>
     <use xlink:href="#m8919e27e1f" x="125.716141" y="362.973287" style="fill: #1f77b4; stroke: #1f77b4"/>
     <use xlink:href="#m8919e27e1f" x="136.068646" y="356.322932" style="fill: #1f77b4; stroke: #1f77b4"/>
     <use xlink:href="#m8919e27e1f" x="146.42115" y="351.010557" style="fill: #1f77b4; stroke: #1f77b4"/>
     <use xlink:href="#m8919e27e1f" x="156.773655" y="346.551722" style="fill: #1f77b4; stroke: #1f77b4"/>
     <use xlink:href="#m8919e27e1f" x="167.12616" y="341.806176" style="fill: #1f77b4; stroke: #1f77b4"/>
     <use xlink:href="#m8919e27e1f" x="177.478664" y="338.658957" style="fill: #1f77b4; stroke: #1f77b4"/>
     <use xlink:href="#m8919e27e1f" x="187.831169" y="331.810871" style="fill: #1f77b4; stroke: #1f77b4"/>
     <use xlink:href="#m8919e27e1f" x="198.183673" y="329.89288" style="fill: #1f77b4; stroke: #1f77b4"/>
     <use xlink:href="#m8919e27e1f" x="208.536178" y="323.183206" style="fill: #1f77b4; stroke: #1f77b4"/>
     <use xlink:href="#m8919e27e1f" x="218.888683" y="319.953599" style="fill: #1f77b4; stroke: #1f77b4"/>
     <use xlink:href="#m8919e27e1f" x="229.241187" y="315.399193" style="fill: #1f77b4; stroke: #1f77b4"/>
     <use xlink:href="#m8919e27e1f" x="239.593692" y="310.564669" style="fill: #1f77b4; stroke: #1f77b4"/>
     <use xlink:href="#m8919e27e1f" x="249.946197" y="305.143542" style="fill: #1f77b4; stroke: #1f77b4"/>
     <use xlink:href="#m8919e27e1f" x="260.298701" y="300.332086" style="fill: #1f77b4; stroke: #1f77b4"/>
     <use xlink:href="#m8919e27e1f" x="270.651206" y="294.241969" style="fill: #1f77b4; stroke: #1f77b4"/>
     <use xlink:href="#m8919e27e1f" x="281.003711" y="290.366441" style="fill: #1f77b4; stroke: #1f77b4"/>
     <use xlink:href="#m8919e27e1f" x="291.356215" y="283.897339" style="fill: #1f77b4; stroke: #1f77b4"/>
     <use xlink:href="#m8919e27e1f" x="301.70872" y="279.649417" style="fill: #1f77b4; stroke: #1f77b4"/>
     <use xlink:href="#m8919e27e1f" x="312.061224" y="275.55968" style="fill: #1f77b4; stroke: #1f77b4"/>
     <use xlink:href="#m8919e27e1f" x="322.413729" y="270.599925" style="fill: #1f77b4; stroke: #1f77b4"/>
     <use xlink:href="#m8919e27e1f" x="332.766234" y="264.928339" style="fill: #1f77b4; stroke: #1f77b4"/>
     <use xlink:href="#m8919e27e1f" x="343.118738" y="260.482686" style="fill: #1f77b4; stroke: #1f77b4"/>
     <use xlink:href="#m8919e27e1f" x="353.471243" y="255.822824" style="fill: #1f77b4; stroke: #1f77b4"/>
     <use xlink:href="#m8919e27e1f" x="363.823748" y="250.935571" style="fill: #1f77b4; stroke: #1f77b4"/>
     <use xlink:href="#m8919e27e1f" x="374.176252" y="242.485864" style="fill: #1f77b4; stroke: #1f77b4"/>
     <use xlink:href="#m8919e27e1f" x="384.528757" y="240.818332" style="fill: #1f77b4; stroke: #1f77b4"/>
     <use xlink:href="#m8919e27e1f" x="394.881262" y="236.366088" style="fill: #1f77b4; stroke: #1f77b4"/>
     <use xlink:href="#m8919e27e1f" x="405.233766" y="230.961439" style="fill: #1f77b4; stroke: #1f77b4"/>
     <use xlink:href="#m8919e27e1f" x="415.586271" y="226.720107" style="fill: #1f77b4; stroke: #1f77b4"/>
     <use xlink:href="#m8919e27e1f" x="425.938776" y="221.51978" style="fill: #1f77b4; stroke: #1f77b4"/>
     <use xlink:href="#m8919e27e1f" x="436.29128" y="216.467752" style="fill: #1f77b4; stroke: #1f77b4"/>
     <use xlink:href="#m8919e27e1f" x="446.643785" y="211.956188" style="fill: #1f77b4; stroke: #1f77b4"/>
     <use xlink:href="#m8919e27e1f" x="456.996289" y="206.963479" style="fill: #1f77b4; stroke: #1f77b4"/>
     <use xlink:href="#m8919e27e1f" x="467.348794" y="201.492919" style="fill: #1f77b4; stroke: #1f77b4"/>
     <use xlink:href="#m8919e27e1f" x="477.701299" y="196.862717" style="fill: #1f77b4; stroke: #1f77b4"/>
     <use xlink:href="#m8919e27e1f" x="488.053803" y="192.42695" style="fill: #1f77b4; stroke: #1f77b4"/>
     <use xlink:href="#m8919e27e1f" x="498.406308" y="187.411172" style="fill: #1f77b4; stroke: #1f77b4"/>
     <use xlink:href="#m8919e27e1f" x="508.758813" y="180.737749" style="fill: #1f77b4; stroke: #1f77b4"/>
     <use xlink:href="#m8919e27e1f" x="519.111317" y="176.852333" style="fill: #1f77b4; stroke: #1f77b4"/>
     <use xlink:href="#m8919e27e1f" x="529.463822" y="171.843146" style="fill: #1f77b4; stroke: #1f77b4"/>
     <use xlink:href="#m8919e27e1f" x="539.816327" y="167.766591" style="fill: #1f77b4; stroke: #1f77b4"/>
     <use xlink:href="#m8919e27e1f" x="550.168831" y="162.121369" style="fill: #1f77b4; stroke: #1f77b4"/>
     <use xlink:href="#m8919e27e1f" x="560.521336" y="157.454916" style="fill: #1f77b4; stroke: #1f77b4"/>
     <use xlink:href="#m8919e27e1f" x="570.87384" y="152.966421" style="fill: #1f77b4; stroke: #1f77b4"/>
     <use xlink:href="#m8919e27e1f" x="581.226345" y="147.594727" style="fill: #1f77b4; stroke: #1f77b4"/>
     <use xlink:href="#m8919e27e1f" x="591.57885" y="140.980623" style="fill: #1f77b4; stroke: #1f77b4"/>
     <use xlink:href="#m8919e27e1f" x="601.931354" y="137.602717" style="fill: #1f77b4; stroke: #1f77b4"/>
     <use xlink:href="#m8919e27e1f" x="612.283859" y="132.886832" style="fill: #1f77b4; stroke: #1f77b4"/>
     <use xlink:href="#m8919e27e1f" x="622.636364" y="128.108331" style="fill: #1f77b4; stroke: #1f77b4"/>
    </g>
   </g>
   <g id="line2d_28">
    <path d="M 115.363636 369.36 
L 125.716141 362.482255 
L 136.068646 352.628657 
L 146.42115 348.143457 
L 156.773655 343.216658 
L 167.12616 337.439616 
L 177.478664 332.614978 
L 187.831169 326.412813 
L 198.183673 320.487472 
L 208.536178 314.318263 
L 218.888683 307.766774 
L 229.241187 302.045755 
L 239.593692 295.603018 
L 249.946197 289.180054 
L 260.298701 283.323919 
L 270.651206 277.438125 
L 281.003711 271.318348 
L 291.356215 265.327097 
L 301.70872 258.452647 
L 312.061224 251.565015 
L 322.413729 245.006935 
L 332.766234 235.594936 
L 343.118738 234.47446 
L 353.471243 224.986665 
L 363.823748 220.369645 
L 374.176252 215.94706 
L 384.528757 209.728418 
L 394.881262 203.457048 
L 405.233766 196.203613 
L 415.586271 191.82387 
L 425.938776 184.217815 
L 436.29128 178.661573 
L 446.643785 172.301223 
L 456.996289 166.616455 
L 467.348794 160.641682 
L 477.701299 154.815206 
L 488.053803 148.131897 
L 498.406308 141.830867 
L 508.758813 135.401312 
L 519.111317 127.347066 
L 529.463822 123.636313 
L 539.816327 116.241172 
L 550.168831 110.549813 
L 560.521336 105.253916 
L 570.87384 97.895025 
L 581.226345 92.190484 
L 591.57885 86.947315 
L 601.931354 80.521055 
L 612.283859 74.744013 
L 622.636364 66.96 
" clip-path="url(#p20f8d0bc64)" style="fill: none; stroke: #ff7f0e; stroke-width: 1.5; stroke-linecap: square"/>
    <defs>
     <path id="m3132010734" d="M 0 3 
C 0.795609 3 1.55874 2.683901 2.12132 2.12132 
C 2.683901 1.55874 3 0.795609 3 0 
C 3 -0.795609 2.683901 -1.55874 2.12132 -2.12132 
C 1.55874 -2.683901 0.795609 -3 0 -3 
C -0.795609 -3 -1.55874 -2.683901 -2.12132 -2.12132 
C -2.683901 -1.55874 -3 -0.795609 -3 0 
C -3 0.795609 -2.683901 1.55874 -2.12132 2.12132 
C -1.55874 2.683901 -0.795609 3 0 3 
z
" style="stroke: #ff7f0e"/>
    </defs>
    <g clip-path="url(#p20f8d0bc64)">
     <use xlink:href="#m3132010734" x="115.363636" y="369.36" style="fill: #ff7f0e; stroke: #ff7f0e"/>
     <use xlink:href="#m3132010734" x="125.716141" y="362.482255" style="fill: #ff7f0e; stroke: #ff7f0e"/>
     <use xlink:href="#m3132010734" x="136.068646" y="352.628657" style="fill: #ff7f0e; stroke: #ff7f0e"/>
     <use xlink:href="#m3132010734" x="146.42115" y="348.143457" style="fill: #ff7f0e; stroke: #ff7f0e"/>
     <use xlink:href="#m3132010734" x="156.773655" y="343.216658" style="fill: #ff7f0e; stroke: #ff7f0e"/>
     <use xlink:href="#m3132010734" x="167.12616" y="337.439616" style="fill: #ff7f0e; stroke: #ff7f0e"/>
     <use xlink:href="#m3132010734" x="177.478664" y="332.614978" style="fill: #ff7f0e; stroke: #ff7f0e"/>
     <use xlink:href="#m3132010734" x="187.831169" y="326.412813" style="fill: #ff7f0e; stroke: #ff7f0e"/>
     <use xlink:href="#m3132010734" x="198.183673" y="320.487472" style="fill: #ff7f0e; stroke: #ff7f0e"/>
     <use xlink:href="#m3132010734" x="208.536178" y="314.318263" style="fill: #ff7f0e; stroke: #ff7f0e"/>
     <use xlink:href="#m3132010734" x="218.888683" y="307.766774" style="fill: #ff7f0e; stroke: #ff7f0e"/>
     <use xlink:href="#m3132010734" x="229.241187" y="302.045755" style="fill: #ff7f0e; stroke: #ff7f0e"/>
     <use xlink:href="#m3132010734" x="239.593692" y="295.603018" style="fill: #ff7f0e; stroke: #ff7f0e"/>
     <use xlink:href="#m3132010734" x="249.946197" y="289.180054" style="fill: #ff7f0e; stroke: #ff7f0e"/>
     <use xlink:href="#m3132010734" x="260.298701" y="283.323919" style="fill: #ff7f0e; stroke: #ff7f0e"/>
     <use xlink:href="#m3132010734" x="270.651206" y="277.438125" style="fill: #ff7f0e; stroke: #ff7f0e"/>
     <use xlink:href="#m3132010734" x="281.003711" y="271.318348" style="fill: #ff7f0e; stroke: #ff7f0e"/>
     <use xlink:href="#m3132010734" x="291.356215" y="265.327097" style="fill: #ff7f0e; stroke: #ff7f0e"/>
     <use xlink:href="#m3132010734" x="301.70872" y="258.452647" style="fill: #ff7f0e; stroke: #ff7f0e"/>
     <use xlink:href="#m3132010734" x="312.061224" y="251.565015" style="fill: #ff7f0e; stroke: #ff7f0e"/>
     <use xlink:href="#m3132010734" x="322.413729" y="245.006935" style="fill: #ff7f0e; stroke: #ff7f0e"/>
     <use xlink:href="#m3132010734" x="332.766234" y="235.594936" style="fill: #ff7f0e; stroke: #ff7f0e"/>
     <use xlink:href="#m3132010734" x="343.118738" y="234.47446" style="fill: #ff7f0e; stroke: #ff7f0e"/>
     <use xlink:href="#m3132010734" x="353.471243" y="224.986665" style="fill: #ff7f0e; stroke: #ff7f0e"/>
     <use xlink:href="#m3132010734" x="363.823748" y="220.369645" style="fill: #ff7f0e; stroke: #ff7f0e"/>
     <use xlink:href="#m3132010734" x="374.176252" y="215.94706" style="fill: #ff7f0e; stroke: #ff7f0e"/>
     <use xlink:href="#m3132010734" x="384.528757" y="209.728418" style="fill: #ff7f0e; stroke: #ff7f0e"/>
     <use xlink:href="#m3132010734" x="394.881262" y="203.457048" style="fill: #ff7f0e; stroke: #ff7f0e"/>
     <use xlink:href="#m3132010734" x="405.233766" y="196.203613" style="fill: #ff7f0e; stroke: #ff7f0e"/>
     <use xlink:href="#m3132010734" x="415.586271" y="191.82387" style="fill: #ff7f0e; stroke: #ff7f0e"/>
     <use xlink:href="#m3132010734" x="425.938776" y="184.217815" style="fill: #ff7f0e; stroke: #ff7f0e"/>
     <use xlink:href="#m3132010734" x="436.29128" y="178.661573" style="fill: #ff7f0e; stroke: #ff7f0e"/>
     <use xlink:href="#m3132010734" x="446.643785" y="172.301223" style="fill: #ff7f0e; stroke: #ff7f0e"/>
     <use xlink:href="#m3132010734" x="456.996289" y="166.616455" style="fill: #ff7f0e; stroke: #ff7f0e"/>
     <use xlink:href="#m3132010734" x="467.348794" y="160.641682" style="fill: #ff7f0e; stroke: #ff7f0e"/>
     <use xlink:href="#m3132010734" x="477.701299" y="154.815206" style="fill: #ff7f0e; stroke: #ff7f0e"/>
     <use xlink:href="#m3132010734" x="488.053803" y="148.131897" style="fill: #ff7f0e; stroke: #ff7f0e"/>
     <use xlink:href="#m3132010734" x="498.406308" y="141.830867" style="fill: #ff7f0e; stroke: #ff7f0e"/>
     <use xlink:href="#m3132010734" x="508.758813" y="135.401312" style="fill: #ff7f0e; stroke: #ff7f0e"/>
     <use xlink:href="#m3132010734" x="519.111317" y="127.347066" style="fill: #ff7f0e; stroke: #ff7f0e"/>
     <use xlink:href="#m3132010734" x="529.463822" y="123.636313" style="fill: #ff7f0e; stroke: #ff7f0e"/>
     <use xlink:href="#m3132010734" x="539.816327" y="116.241172" style="fill: #ff7f0e; stroke: #ff7f0e"/>
     <use xlink:href="#m3132010734" x="550.168831" y="110.549813" style="fill: #ff7f0e; stroke: #ff7f0e"/>
     <use xlink:href="#m3132010734" x="560.521336" y="105.253916" style="fill: #ff7f0e; stroke: #ff7f0e"/>
     <use xlink:href="#m3132010734" x="570.87384" y="97.895025" style="fill: #ff7f0e; stroke: #ff7f0e"/>
     <use xlink:href="#m3132010734" x="581.226345" y="92.190484" style="fill: #ff7f0e; stroke: #ff7f0e"/>
     <use xlink:href="#m3132010734" x="591.57885" y="86.947315" style="fill: #ff7f0e; stroke: #ff7f0e"/>
     <use xlink:href="#m3132010734" x="601.931354" y="80.521055" style="fill: #ff7f0e; stroke: #ff7f0e"/>
     <use xlink:href="#m3132010734" x="612.283859" y="74.744013" style="fill: #ff7f0e; stroke: #ff7f0e"/>
     <use xlink:href="#m3132010734" x="622.636364" y="66.96" style="fill: #ff7f0e; stroke: #ff7f0e"/>
    </g>
   </g>
   <g id="patch_3">
    <path d="M 90 384.48 
L 90 51.84 
" style="fill: none; stroke: #000000; stroke-width: 0.8; stroke-linejoin: miter; stroke-linecap: square"/>
   </g>
   <g id="patch_4">
    <path d="M 648 384.48 
L 648 51.84 
" style="fill: none; stroke: #000000; stroke-width: 0.8; stroke-linejoin: miter; stroke-linecap: square"/>
   </g>
   <g id="patch_5">
    <path d="M 90 384.48 
L 648 384.48 
" style="fill: none; stroke: #000000; stroke-width: 0.8; stroke-linejoin: miter; stroke-linecap: square"/>
   </g>
   <g id="patch_6">
    <path d="M 90 51.84 
L 648 51.84 
" style="fill: none; stroke: #000000; stroke-width: 0.8; stroke-linejoin: miter; stroke-linecap: square"/>
   </g>
   <g id="text_16">
    <!-- Tempo médio pelo Número de Entradas -->
    <g transform="translate(250.249687 45.84) scale(0.12 -0.12)">
     <defs>
      <path id="DejaVuSans-6c" d="M 603 4863 
L 1178 4863 
L 1178 0 
L 603 0 
L 603 4863 
z
" transform="scale(0.015625)"/>
      <path id="DejaVuSans-4e" d="M 628 4666 
L 1478 4666 
L 3547 763 
L 3547 4666 
L 4159 4666 
L 4159 0 
L 3309 0 
L 1241 3903 
L 1241 0 
L 628 0 
L 628 4666 
z
" transform="scale(0.015625)"/>
      <path id="DejaVuSans-fa" d="M 544 1381 
L 544 3500 
L 1119 3500 
L 1119 1403 
Q 1119 906 1312 657 
Q 1506 409 1894 409 
Q 2359 409 2629 706 
Q 2900 1003 2900 1516 
L 2900 3500 
L 3475 3500 
L 3475 0 
L 2900 0 
L 2900 538 
Q 2691 219 2414 64 
Q 2138 -91 1772 -91 
Q 1169 -91 856 284 
Q 544 659 544 1381 
z
M 1991 3584 
L 1991 3584 
z
M 2419 5119 
L 3041 5119 
L 2022 3944 
L 1544 3944 
L 2419 5119 
z
" transform="scale(0.015625)"/>
     </defs>
     <use xlink:href="#DejaVuSans-54"/>
     <use xlink:href="#DejaVuSans-65" x="44.083984"/>
     <use xlink:href="#DejaVuSans-6d" x="105.607422"/>
     <use xlink:href="#DejaVuSans-70" x="203.019531"/>
     <use xlink:href="#DejaVuSans-6f" x="266.496094"/>
     <use xlink:href="#DejaVuSans-20" x="327.677734"/>
     <use xlink:href="#DejaVuSans-6d" x="359.464844"/>
     <use xlink:href="#DejaVuSans-e9" x="456.876953"/>
     <use xlink:href="#DejaVuSans-64" x="518.400391"/>
     <use xlink:href="#DejaVuSans-69" x="581.876953"/>
     <use xlink:href="#DejaVuSans-6f" x="609.660156"/>
     <use xlink:href="#DejaVuSans-20" x="670.841797"/>
     <use xlink:href="#DejaVuSans-70" x="702.628906"/>
     <use xlink:href="#DejaVuSans-65" x="766.105469"/>
     <use xlink:href="#DejaVuSans-6c" x="827.628906"/>
     <use xlink:href="#DejaVuSans-6f" x="855.412109"/>
     <use xlink:href="#DejaVuSans-20" x="916.59375"/>
     <use xlink:href="#DejaVuSans-4e" x="948.380859"/>
     <use xlink:href="#DejaVuSans-fa" x="1023.185547"/>
     <use xlink:href="#DejaVuSans-6d" x="1086.564453"/>
     <use xlink:href="#DejaVuSans-65" x="1183.976562"/>
     <use xlink:href="#DejaVuSans-72" x="1245.5"/>
     <use xlink:href="#DejaVuSans-6f" x="1284.363281"/>
     <use xlink:href="#DejaVuSans-20" x="1345.544922"/>
     <use xlink:href="#DejaVuSans-64" x="1377.332031"/>
     <use xlink:href="#DejaVuSans-65" x="1440.808594"/>
     <use xlink:href="#DejaVuSans-20" x="1502.332031"/>
     <use xlink:href="#DejaVuSans-45" x="1534.119141"/>
     <use xlink:href="#DejaVuSans-6e" x="1597.302734"/>
     <use xlink:href="#DejaVuSans-74" x="1660.681641"/>
     <use xlink:href="#DejaVuSans-72" x="1699.890625"/>
     <use xlink:href="#DejaVuSans-61" x="1741.003906"/>
     <use xlink:href="#DejaVuSans-64" x="1802.283203"/>
     <use xlink:href="#DejaVuSans-61" x="1865.759766"/>
     <use xlink:href="#DejaVuSans-73" x="1927.039062"/>
    </g>
   </g>
   <g id="legend_1">
    <g id="patch_7">
     <path d="M 97 89.99625 
L 313.085938 89.99625 
Q 315.085938 89.99625 315.085938 87.99625 
L 315.085938 58.84 
Q 315.085938 56.84 313.085938 56.84 
L 97 56.84 
Q 95 56.84 95 58.84 
L 95 87.99625 
Q 95 89.99625 97 89.99625 
z
" style="fill: #ffffff; opacity: 0.8; stroke: #cccccc; stroke-linejoin: miter"/>
    </g>
    <g id="line2d_29">
     <path d="M 99 65.338437 
L 109 65.338437 
L 119 65.338437 
" style="fill: none; stroke: #1f77b4; stroke-width: 1.5; stroke-linecap: square"/>
     <g>
      <use xlink:href="#m8919e27e1f" x="109" y="65.338437" style="fill: #1f77b4; stroke: #1f77b4"/>
     </g>
    </g>
    <g id="text_17">
     <!-- Tempo de médio da estratégia BMH -->
     <g transform="translate(127 68.838437) scale(0.1 -0.1)">
      <defs>
       <path id="DejaVuSans-42" d="M 1259 2228 
L 1259 519 
L 2272 519 
Q 2781 519 3026 730 
Q 3272 941 3272 1375 
Q 3272 1813 3026 2020 
Q 2781 2228 2272 2228 
L 1259 2228 
z
M 1259 4147 
L 1259 2741 
L 2194 2741 
Q 2656 2741 2882 2914 
Q 3109 3088 3109 3444 
Q 3109 3797 2882 3972 
Q 2656 4147 2194 4147 
L 1259 4147 
z
M 628 4666 
L 2241 4666 
Q 2963 4666 3353 4366 
Q 3744 4066 3744 3513 
Q 3744 3084 3544 2831 
Q 3344 2578 2956 2516 
Q 3422 2416 3680 2098 
Q 3938 1781 3938 1306 
Q 3938 681 3513 340 
Q 3088 0 2303 0 
L 628 0 
L 628 4666 
z
" transform="scale(0.015625)"/>
       <path id="DejaVuSans-4d" d="M 628 4666 
L 1569 4666 
L 2759 1491 
L 3956 4666 
L 4897 4666 
L 4897 0 
L 4281 0 
L 4281 4097 
L 3078 897 
L 2444 897 
L 1241 4097 
L 1241 0 
L 628 0 
L 628 4666 
z
" transform="scale(0.015625)"/>
       <path id="DejaVuSans-48" d="M 628 4666 
L 1259 4666 
L 1259 2753 
L 3553 2753 
L 3553 4666 
L 4184 4666 
L 4184 0 
L 3553 0 
L 3553 2222 
L 1259 2222 
L 1259 0 
L 628 0 
L 628 4666 
z
" transform="scale(0.015625)"/>
      </defs>
      <use xlink:href="#DejaVuSans-54"/>
      <use xlink:href="#DejaVuSans-65" x="44.083984"/>
      <use xlink:href="#DejaVuSans-6d" x="105.607422"/>
      <use xlink:href="#DejaVuSans-70" x="203.019531"/>
      <use xlink:href="#DejaVuSans-6f" x="266.496094"/>
      <use xlink:href="#DejaVuSans-20" x="327.677734"/>
      <use xlink:href="#DejaVuSans-64" x="359.464844"/>
      <use xlink:href="#DejaVuSans-65" x="422.941406"/>
      <use xlink:href="#DejaVuSans-20" x="484.464844"/>
      <use xlink:href="#DejaVuSans-6d" x="516.251953"/>
      <use xlink:href="#DejaVuSans-e9" x="613.664062"/>
      <use xlink:href="#DejaVuSans-64" x="675.1875"/>
      <use xlink:href="#DejaVuSans-69" x="738.664062"/>
      <use xlink:href="#DejaVuSans-6f" x="766.447266"/>
      <use xlink:href="#DejaVuSans-20" x="827.628906"/>
      <use xlink:href="#DejaVuSans-64" x="859.416016"/>
      <use xlink:href="#DejaVuSans-61" x="922.892578"/>
      <use xlink:href="#DejaVuSans-20" x="984.171875"/>
      <use xlink:href="#DejaVuSans-65" x="1015.958984"/>
      <use xlink:href="#DejaVuSans-73" x="1077.482422"/>
      <use xlink:href="#DejaVuSans-74" x="1129.582031"/>
      <use xlink:href="#DejaVuSans-72" x="1168.791016"/>
      <use xlink:href="#DejaVuSans-61" x="1209.904297"/>
      <use xlink:href="#DejaVuSans-74" x="1271.183594"/>
      <use xlink:href="#DejaVuSans-e9" x="1310.392578"/>
      <use xlink:href="#DejaVuSans-67" x="1371.916016"/>
      <use xlink:href="#DejaVuSans-69" x="1435.392578"/>
      <use xlink:href="#DejaVuSans-61" x="1463.175781"/>
      <use xlink:href="#DejaVuSans-20" x="1524.455078"/>
      <use xlink:href="#DejaVuSans-42" x="1556.242188"/>
      <use xlink:href="#DejaVuSans-4d" x="1624.845703"/>
      <use xlink:href="#DejaVuSans-48" x="1711.125"/>
     </g>
    </g>
    <g id="line2d_30">
     <path d="M 99 80.416562 
L 109 80.416562 
L 119 80.416562 
" style="fill: none; stroke: #ff7f0e; stroke-width: 1.5; stroke-linecap: square"/>
     <g>
      <use xlink:href="#m3132010734" x="109" y="80.416562" style="fill: #ff7f0e; stroke: #ff7f0e"/>
     </g>
    </g>
    <g id="text_18">
     <!-- Tempo de médio da estratégia Naive -->
     <g transform="translate(127 83.916562) scale(0.1 -0.1)">
      <defs>
       <path id="DejaVuSans-76" d="M 191 3500 
L 800 3500 
L 1894 563 
L 2988 3500 
L 3597 3500 
L 2284 0 
L 1503 0 
L 191 3500 
z
" transform="scale(0.015625)"/>
      </defs>
      <use xlink:href="#DejaVuSans-54"/>
      <use xlink:href="#DejaVuSans-65" x="44.083984"/>
      <use xlink:href="#DejaVuSans-6d" x="105.607422"/>
      <use xlink:href="#DejaVuSans-70" x="203.019531"/>
      <use xlink:href="#DejaVuSans-6f" x="266.496094"/>
      <use xlink:href="#DejaVuSans-20" x="327.677734"/>
      <use xlink:href="#DejaVuSans-64" x="359.464844"/>
      <use xlink:href="#DejaVuSans-65" x="422.941406"/>
      <use xlink:href="#DejaVuSans-20" x="484.464844"/>
      <use xlink:href="#DejaVuSans-6d" x="516.251953"/>
      <use xlink:href="#DejaVuSans-e9" x="613.664062"/>
      <use xlink:href="#DejaVuSans-64" x="675.1875"/>
      <use xlink:href="#DejaVuSans-69" x="738.664062"/>
      <use xlink:href="#DejaVuSans-6f" x="766.447266"/>
      <use xlink:href="#DejaVuSans-20" x="827.628906"/>
      <use xlink:href="#DejaVuSans-64" x="859.416016"/>
      <use xlink:href="#DejaVuSans-61" x="922.892578"/>
      <use xlink:href="#DejaVuSans-20" x="984.171875"/>
      <use xlink:href="#DejaVuSans-65" x="1015.958984"/>
      <use xlink:href="#DejaVuSans-73" x="1077.482422"/>
      <use xlink:href="#DejaVuSans-74" x="1129.582031"/>
      <use xlink:href="#DejaVuSans-72" x="1168.791016"/>
      <use xlink:href="#DejaVuSans-61" x="1209.904297"/>
      <use xlink:href="#DejaVuSans-74" x="1271.183594"/>
      <use xlink:href="#DejaVuSans-e9" x="1310.392578"/>
      <use xlink:href="#DejaVuSans-67" x="1371.916016"/>
      <use xlink:href="#DejaVuSans-69" x="1435.392578"/>
      <use xlink:href="#DejaVuSans-61" x="1463.175781"/>
      <use xlink:href="#DejaVuSans-20" x="1524.455078"/>
      <use xlink:href="#DejaVuSans-4e" x="1556.242188"/>
      <use xlink:href="#DejaVuSans-61" x="1631.046875"/>
      <use xlink:href="#DejaVuSans-69" x="1692.326172"/>
      <use xlink:href="#DejaVuSans-76" x="1720.109375"/>
      <use xlink:href="#DejaVuSans-65" x="1779.289062"/>
     </g>
    </g>
   </g>
  </g>
 </g>
 <defs>
  <clipPath id="p20f8d0bc64">
   <rect x="90" y="51.84" width="558" height="332.64"/>
  </clipPath>
 </defs>
</svg>
